<svg width="5308" height="5295" viewBox="0 0 5308 5295" fill="none" xmlns="http://www.w3.org/2000/svg">
    <path d="M1364.56 3776.44C1364.56 3863.76 1334.57 3926.47 1283.89 3953.47L1099.75 4059.39C1147.13 4029.38 1175.92 3969.37 1175.92 3885.36C1175.92 3711.33 1054.16 3499.79 903.611 3412.78C828.335 3369.27 760.556 3365.37 711.072 3393.88L899.712 3285.26C948.896 3255.25 1017.27 3260.35 1092.55 3303.86C1242.8 3390.58 1364.56 3602.71 1364.56 3776.44Z" fill="#262626"/>
    <path d="M903.611 3412.78C1053.56 3499.8 1175.92 3712.83 1175.92 3885.36C1175.92 3970.28 1145.93 4029.98 1099.75 4059.39L1096.15 4061.49C1046.96 4091.5 979.186 4086.39 903.611 4042.59C753.659 3955.57 631.298 3744.04 631.298 3570.31C631.298 3483.59 661.288 3422.38 711.072 3393.88C760.856 3365.37 828.335 3369.27 903.611 3412.78Z" fill="white"/>
    <path d="M903.611 3624.92C929.681 3641.72 951.418 3664.45 967.051 3691.25C982.685 3718.05 991.775 3748.16 993.582 3779.14C994.659 3789.98 992.936 3800.92 988.577 3810.9C984.218 3820.88 977.371 3829.58 968.69 3836.15C958.603 3840.83 947.455 3842.74 936.387 3841.68C925.32 3840.63 914.732 3836.65 905.71 3830.15C879.583 3813.33 857.809 3790.56 842.171 3763.7C826.533 3736.84 817.475 3706.66 815.739 3675.62C814.523 3664.61 816.305 3653.46 820.898 3643.38C825.491 3633.29 832.723 3624.63 841.83 3618.31C851.786 3613.83 862.757 3612.07 873.615 3613.23C884.473 3614.39 894.827 3618.43 903.611 3624.92Z" fill="#262626"/>
    <path d="M1025.37 4125.1C974.233 4123.17 924.495 4107.86 881.118 4080.69C715.87 3985.28 586.312 3760.54 586.312 3570.61C586.312 3469.79 622.6 3393.28 688.579 3355.47C754.558 3317.66 838.531 3325.47 926.103 3374.07C1091.65 3469.79 1220.91 3694.53 1220.91 3885.66C1220.91 3983.48 1186.42 4058.79 1123.74 4097.8L1121.34 4099.3H1118.64C1090.44 4116.15 1058.22 4125.06 1025.37 4125.1ZM782.449 3420.58C765.365 3420.38 748.52 3424.62 733.565 3432.88C697.276 3453.89 676.283 3504 676.283 3570.31C676.283 3726.93 790.846 3925.27 926.103 4003.88C984.584 4037.49 1037.07 4044.09 1073.66 4022.78C1109.04 4000.58 1128.54 3952.27 1128.54 3886.86C1128.54 3730.23 1014.27 3531.6 878.718 3453.29C849.944 3434.35 816.803 3423.09 782.449 3420.58Z" fill="#262626"/>
    <path d="M1096.15 4106.5C1086.21 4106.65 1076.5 4103.47 1068.56 4097.48C1060.62 4091.48 1054.91 4083.01 1052.33 4073.4C1049.75 4063.79 1050.44 4053.6 1054.31 4044.43C1058.17 4035.26 1064.98 4027.64 1073.66 4022.78L1261.4 3914.47C1299.18 3893.16 1319.58 3844.25 1319.58 3776.44C1319.58 3619.82 1205.31 3421.18 1069.76 3342.87C1009.78 3309.26 958.793 3302.66 921.905 3323.96L733.565 3432.88C728.453 3436.33 722.686 3438.69 716.623 3439.82C710.561 3440.94 704.331 3440.81 698.322 3439.43C692.313 3438.04 686.653 3435.44 681.693 3431.77C676.733 3428.11 672.578 3423.46 669.488 3418.12C666.398 3412.78 664.437 3406.87 663.729 3400.74C663.02 3394.61 663.578 3388.4 665.369 3382.5C667.159 3376.59 670.143 3371.12 674.136 3366.42C678.129 3361.72 683.045 3357.89 688.58 3355.17L876.919 3246.25C942.898 3207.85 1026.87 3214.45 1114.74 3265.16C1279.99 3360.57 1409.55 3585.31 1409.55 3775.24C1409.55 3876.96 1372.66 3955.27 1305.78 3991.58L1118.64 4099.3C1111.97 4103.76 1104.17 4106.25 1096.15 4106.5Z" fill="#262626"/>
    <path d="M3388.91 4946.34C3388.91 5033.66 3358.92 5096.37 3307.94 5123.37L3124.1 5229.29C3171.18 5199.28 3200.27 5139.27 3200.27 5055.26C3200.27 4881.53 3078.51 4669.99 2927.96 4582.68C2852.39 4539.17 2784.61 4535.27 2735.42 4564.08L2923.46 4455.16C2972.95 4425.15 3041.03 4430.55 3116.6 4474.06C3268.95 4560.78 3388.91 4772.61 3388.91 4946.34Z" fill="#262626"/>
    <path d="M2929.16 4582.68C3079.11 4669.99 3201.47 4882.73 3201.47 5055.26C3201.47 5140.17 3171.48 5199.88 3125.3 5229.29L3121.7 5231.39C3072.22 5261.39 3004.44 5256.29 2929.16 5212.79C2779.21 5125.47 2656.85 4912.74 2656.85 4740.21C2656.85 4653.49 2686.84 4592.28 2736.62 4564.08C2786.41 4535.87 2853.59 4539.17 2929.16 4582.68Z" fill="white"/>
    <path d="M2929.16 4794.81C2955.25 4811.61 2977 4834.33 2992.63 4861.13C3008.27 4887.94 3017.35 4918.06 3019.13 4949.04C3020.27 4959.89 3018.57 4970.84 3014.21 4980.83C3009.85 4990.83 3002.97 4999.51 2994.24 5006.05C2984.21 5010.73 2973.11 5012.65 2962.08 5011.59C2951.06 5010.54 2940.53 5006.55 2931.56 5000.05C2905.49 4983.24 2883.75 4960.51 2868.12 4933.71C2852.49 4906.91 2843.4 4876.8 2841.59 4845.82C2839.06 4834.51 2840.21 4822.67 2844.88 4812.06C2849.56 4801.44 2857.5 4792.61 2867.56 4786.84C2877.62 4781.07 2889.26 4778.67 2900.77 4780C2912.29 4781.33 2923.08 4786.31 2931.56 4794.21L2929.16 4794.81Z" fill="#262626"/>
    <path d="M3050.62 5295C2999.64 5293.47 2949.97 5278.46 2906.67 5251.49C2741.42 5156.08 2611.86 4931.34 2611.86 4741.41C2611.86 4640.59 2648.15 4564.08 2714.13 4526.27C2780.11 4488.46 2864.08 4494.76 2951.65 4545.17C3116.9 4640.59 3246.46 4865.33 3246.46 5055.26C3246.46 5153.08 3211.97 5228.39 3148.99 5267.7L3146.59 5269.2H3144.19C3115.9 5286.08 3083.57 5295 3050.62 5295ZM2808 4590.78C2790.91 4590.49 2774.04 4594.74 2759.12 4603.08C2722.53 4624.39 2701.83 4674.19 2701.83 4740.51C2701.83 4897.13 2816.1 5095.77 2951.65 5174.08C3009.84 5207.69 3062.32 5214.29 3099.21 5192.98C3134.6 5170.78 3154.09 5122.47 3154.09 5057.06C3154.09 4900.43 3039.53 4701.8 2904.27 4623.49C2875.45 4604.63 2842.34 4593.38 2808 4590.78Z" fill="#262626"/>
    <path d="M3121.7 5276.7C3111.79 5276.71 3102.15 5273.44 3094.28 5267.41C3086.42 5261.38 3080.76 5252.91 3078.2 5243.33C3075.63 5233.75 3076.3 5223.6 3080.1 5214.44C3083.9 5205.28 3090.62 5197.63 3099.21 5192.68L3286.65 5084.36C3324.43 5063.06 3346.63 5014.15 3346.63 4946.34C3346.63 4789.71 3232.06 4591.38 3096.81 4512.77C3038.33 4479.16 2985.84 4472.56 2948.96 4493.86L2759.12 4602.78C2754 4606.23 2748.24 4608.59 2742.17 4609.72C2736.11 4610.84 2729.88 4610.71 2723.87 4609.32C2717.86 4607.94 2712.2 4605.34 2707.24 4601.67C2702.28 4598.01 2698.13 4593.36 2695.04 4588.02C2691.95 4582.68 2689.99 4576.77 2689.28 4570.64C2688.57 4564.51 2689.13 4558.3 2690.92 4552.4C2692.71 4546.49 2695.69 4541.02 2699.69 4536.32C2703.68 4531.62 2708.6 4527.79 2714.13 4525.07L2902.17 4416.15C2968.15 4377.74 3052.12 4384.34 3140.29 4435.05C3305.54 4530.77 3435.1 4755.21 3435.1 4945.14C3435.1 5046.86 3398.21 5125.17 3331.33 5161.48L3144.19 5269.2C3137.5 5273.66 3129.73 5276.25 3121.7 5276.7Z" fill="#262626"/>
    <path d="M2353.65 3987.68L2930.06 4320.73C2760.62 4250.52 2628.06 4332.74 2612.16 4522.07L419.866 3256.15V2871.19L2353.65 3987.68Z" fill="#262626"/>
    <path d="M2612.16 4566.78C2604.28 4566.74 2596.53 4564.68 2589.67 4560.78L398.573 3295.16C391.73 3291.21 386.048 3285.52 382.099 3278.67C378.151 3271.83 376.075 3264.06 376.08 3256.15V2871.19C376.013 2863.27 378.063 2855.48 382.018 2848.62C385.972 2841.76 391.688 2836.09 398.573 2832.18C405.401 2828.2 413.163 2826.1 421.065 2826.1C428.968 2826.1 436.729 2828.2 443.558 2832.18L2952.55 4281.43C2957.85 4284.05 2962.58 4287.69 2966.47 4292.14C2970.36 4296.58 2973.34 4301.76 2975.24 4307.36C2977.13 4312.96 2977.9 4318.88 2977.51 4324.78C2977.12 4330.67 2975.57 4336.44 2972.95 4341.74C2970.33 4347.04 2966.69 4351.77 2962.25 4355.66C2957.8 4359.56 2952.63 4362.54 2947.03 4364.43C2941.43 4366.33 2935.52 4367.1 2929.62 4366.71C2923.73 4366.31 2917.96 4364.76 2912.67 4362.14C2844.59 4333.64 2784.61 4332.14 2739.32 4362.14C2694.04 4392.15 2663.45 4448.86 2657.15 4526.87C2656.42 4534.38 2653.84 4541.6 2649.66 4547.88C2645.47 4554.16 2639.81 4559.31 2633.16 4562.88C2626.59 4565.9 2619.38 4567.24 2612.16 4566.78ZM466.051 3230.05L2579.17 4450.36C2593.72 4381.98 2634.68 4322.12 2693.14 4283.83C2707.89 4274.8 2723.7 4267.64 2740.22 4262.52L466.051 2948.9V3230.05Z" fill="#262626"/>
    <path d="M3887.65 1276.42V3092.03L2176.1 4080.69V2264.79L3887.65 1276.42Z" fill="#262626"/>
    <path d="M3887.65 1276.42L2176.1 2264.79L44.9854 1033.98L1756.54 45.0078L3887.65 1276.42Z" fill="#FFD600"/>
    <path d="M2176.1 2264.79V4080.69L44.9854 2849.58V1033.98L2176.1 2264.79Z" fill="#FFD600"/>
    <path d="M2176.4 2310.39C2168.5 2310.51 2160.71 2308.43 2153.91 2304.39L22.4925 1072.98C15.6403 1069.04 9.94868 1063.35 5.99108 1056.5C2.03348 1049.66 -0.050293 1041.89 -0.050293 1033.98C-0.050293 1026.07 2.03348 1018.29 5.99108 1011.45C9.94868 1004.6 15.6403 998.915 22.4925 994.969L1734.04 6.00076C1740.87 2.02091 1748.63 -0.0759277 1756.54 -0.0759277C1764.44 -0.0759277 1772.2 2.02091 1779.03 6.00076L3910.15 1236.21C3917.01 1240.11 3922.71 1245.77 3926.67 1252.59C3930.64 1259.42 3932.73 1267.17 3932.73 1275.07C3932.73 1282.96 3930.64 1290.72 3926.67 1297.54C3922.71 1304.37 3917.01 1310.02 3910.15 1313.92L2198.9 2304.09C2192.09 2308.16 2184.33 2310.34 2176.4 2310.39ZM134.957 1033.98L2176.4 2212.88L3797.68 1276.42L1756.54 96.9162L134.957 1033.98Z" fill="#262626"/>
    <path d="M2176.4 4125.7C2164.47 4125.7 2153.03 4120.96 2144.59 4112.52C2136.16 4104.08 2131.42 4092.63 2131.42 4080.69V2264.79C2131.42 2252.85 2136.16 2241.4 2144.59 2232.96C2153.03 2224.52 2164.47 2219.78 2176.4 2219.78C2188.33 2219.78 2199.78 2224.52 2208.21 2232.96C2216.65 2241.4 2221.39 2252.85 2221.39 2264.79V4080.69C2221.31 4092.61 2216.54 4104.01 2208.13 4112.43C2199.71 4120.86 2188.31 4125.62 2176.4 4125.7Z" fill="#262626"/>
    <path d="M2176.4 4125.7C2168.47 4125.71 2160.69 4123.53 2153.91 4119.4L22.4928 2888.59C15.8189 2884.67 10.2522 2879.12 6.3171 2872.45C2.38198 2865.78 0.208011 2858.22 0 2850.48L0 1033.98C0 1022.04 4.73954 1010.59 13.176 1002.15C21.6124 993.71 33.0547 988.968 44.9856 988.968C56.9165 988.968 68.3588 993.71 76.7952 1002.15C85.2316 1010.59 89.9712 1022.04 89.9712 1033.98V2823.48L2176.4 4028.48L3842.67 3065.92V1276.42C3842.67 1264.48 3847.41 1253.03 3855.84 1244.59C3864.28 1236.15 3875.72 1231.41 3887.65 1231.41C3899.59 1231.41 3911.03 1236.15 3919.46 1244.59C3927.9 1253.03 3932.64 1264.48 3932.64 1276.42V3092.03C3932.65 3099.93 3930.57 3107.7 3926.62 3114.55C3922.67 3121.39 3916.99 3127.08 3910.15 3131.03L2198.9 4119.4C2192.08 4123.45 2184.32 4125.62 2176.4 4125.7Z" fill="#262626"/>
    <path d="M4500.06 2065.25L3078.51 2886.19L2353.65 2467.62L3775.19 1646.38L4500.06 2065.25Z" fill="#FFD600"/>
    <path d="M5254.02 3506.7L3832.17 4327.64C3832.17 4312.03 3829.77 4297.63 3828.57 4280.53L3765.89 3586.81C3749.1 3404.68 3622.84 3200.64 3472.29 3113.63L3078.51 2886.19L4500.06 2065.25L4894.13 2292.69C5044.08 2379.7 5170.64 2583.44 5187.44 2765.57C5188.34 2765.57 5252.82 3491.09 5254.02 3506.7Z" fill="white"/>
    <path d="M3841.17 5017.15V4560.78C3841.17 4485.16 3838.17 4407.75 3832.17 4329.14L5254.02 3508.2C5260.02 3586.81 5263.01 3663.92 5263.01 3739.54V4197.71C5263.01 4257.72 5242.02 4298.23 5208.43 4317.73L3786.89 5138.67C3820.48 5117.97 3841.17 5076.56 3841.17 5017.15Z" fill="#262626"/>
    <path d="M4263.67 4600.78C4318.99 4504.92 4318.95 4401.27 4263.58 4369.29C4208.21 4337.31 4118.48 4389.1 4063.16 4484.96C4007.84 4580.83 4007.88 4684.47 4063.25 4716.45C4118.61 4748.44 4208.35 4696.65 4263.67 4600.78Z" fill="white"/>
    <path d="M5116.96 3992.18C5114.3 4041.34 5100.1 4089.18 5075.51 4131.83C5050.91 4174.47 5016.62 4210.72 4975.41 4237.62C4897.13 4282.93 4833.55 4246.32 4833.55 4155.71C4836.26 4106.52 4850.52 4058.67 4875.17 4016.03C4899.81 3973.39 4934.15 3937.15 4975.41 3910.26C5053.68 3864.96 5116.96 3900.66 5116.96 3992.18Z" fill="white"/>
    <path d="M3828.57 4280.53C3828.57 4296.43 3831.27 4312.03 3832.17 4327.64L3480.98 4125.1C3286.95 4012.58 3125.9 3745.54 3113.3 3514.5L3078.51 2886.19L3472.29 3113.63C3622.24 3200.64 3749.1 3404.68 3765.89 3586.81L3828.57 4280.53Z" fill="white"/>
    <path d="M3480.99 4125.1L3832.17 4327.64C3838.17 4406.25 3841.17 4483.66 3841.17 4559.27V5017.15C3841.17 5077.16 3820.48 5117.97 3786.89 5137.17C3753.3 5156.38 3706.81 5153.98 3655.53 5123.97L3351.73 4948.74C3334.03 4720.4 3175.08 4458.16 2981.95 4345.94C2965.25 4336.35 2947.92 4327.93 2930.06 4320.73L2353.65 3987.68V2467.62L3078.51 2887.69L3113.3 3516C3125.9 3745.54 3286.95 4012.58 3480.99 4125.1Z" fill="#FFD600"/>
    <path d="M3738.6 5194.78C3701.29 5194.26 3664.78 5183.91 3632.74 5164.78L3328.93 4988.05C3322.61 4984.4 3317.26 4979.27 3313.34 4973.11C3309.43 4966.94 3307.06 4959.92 3306.44 4952.64C3289.95 4738.11 3137.6 4489.06 2959.15 4385.25C2944.11 4376.47 2928.48 4368.75 2912.37 4362.14L2907.27 4359.44L2330.85 4026.38C2324.16 4022.41 2318.64 4016.74 2314.84 4009.94C2311.05 4003.14 2309.13 3995.46 2309.26 3987.68V2467.62C2309.26 2459.72 2311.33 2451.95 2315.28 2445.11C2319.22 2438.26 2324.9 2432.57 2331.74 2428.62C2338.58 2424.67 2346.34 2422.58 2354.24 2422.58C2362.14 2422.58 2369.9 2424.66 2376.74 2428.61L3101.61 2848.68C3111.95 2854.65 3119.49 2864.49 3122.59 2876.02C3125.68 2887.56 3124.07 2899.85 3118.1 2910.19C3112.14 2920.54 3102.31 2928.09 3090.78 2931.19C3079.25 2934.28 3066.96 2932.67 3056.62 2926.7L2399.23 2545.63V3960.67L2950.76 4279.03C2969.38 4287.15 2987.5 4296.37 3005.04 4306.63C3203.27 4421.55 3367.32 4682.3 3394.91 4920.84L3678.62 5084.36C3689.37 5096.06 3703.77 5103.75 3719.46 5106.16C3735.15 5108.57 3751.2 5105.56 3764.96 5097.64C3778.71 5089.71 3789.36 5077.32 3795.15 5062.53C3800.93 5047.74 3801.51 5031.42 3796.78 5016.25V4560.78C3796.78 4485.16 3793.79 4408.35 3787.79 4332.74C3787.3 4326.84 3787.98 4320.9 3789.8 4315.27C3791.62 4309.64 3794.54 4304.42 3798.39 4299.93C3802.24 4295.44 3806.94 4291.75 3812.23 4289.09C3817.51 4286.43 3823.27 4284.84 3829.17 4284.43C3841.05 4283.6 3852.77 4287.48 3861.8 4295.23C3870.84 4302.97 3876.46 4313.97 3877.46 4325.84C3883.76 4403.85 3886.76 4482.76 3886.76 4560.78V5018.65C3886.76 5092.47 3859.46 5149.18 3809.98 5177.98C3788.12 5189.87 3763.47 5195.67 3738.6 5194.78Z" fill="#262626"/>
    <path d="M3832.17 4372.64C3822.26 4372.65 3812.62 4369.39 3804.76 4363.36C3796.89 4357.32 3791.23 4348.86 3788.67 4339.28C3786.1 4329.7 3786.77 4319.54 3790.57 4310.38C3794.37 4301.22 3801.09 4293.58 3809.68 4288.63L5231.52 3467.69C5241.76 3462.66 5253.51 3461.7 5264.42 3465.02C5275.33 3468.33 5284.58 3475.66 5290.29 3485.53C5296 3495.4 5297.76 3507.07 5295.2 3518.18C5292.64 3529.3 5285.96 3539.03 5276.51 3545.4L3854.67 4366.64C3847.83 4370.61 3840.07 4372.68 3832.17 4372.64Z" fill="#262626"/>
    <path d="M3832.17 4372.64C3824.27 4372.76 3816.48 4370.68 3809.68 4366.64L3458.49 4163.81C3248.56 4043.79 3081.81 3765.04 3068.62 3516.9L3033.83 2888.89C3033.33 2880.76 3035.04 2872.65 3038.78 2865.42C3042.52 2858.18 3048.16 2852.1 3055.08 2847.82C3062.01 2843.54 3069.97 2841.22 3078.11 2841.11C3086.25 2841 3094.27 2843.1 3101.31 2847.18L3495.08 3074.92C3657.03 3168.24 3792.89 3386.68 3810.88 3582.61C3821.98 3702.63 3876.56 4309.63 3877.16 4325.54C3877.48 4331.61 3876.57 4337.68 3874.47 4343.38C3872.37 4349.09 3869.13 4354.3 3864.95 4358.71C3860.77 4363.12 3855.73 4366.63 3850.15 4369.03C3844.56 4371.42 3838.55 4372.65 3832.47 4372.64H3832.17ZM3128 2966.9L3157.99 3511.8C3169.68 3728.73 3321.44 3981.08 3503.18 4086.09L3779.39 4245.42L3719.41 3590.71C3704.11 3424.18 3585.05 3230.65 3449.5 3152.64L3128 2966.9Z" fill="#262626"/>
    <path d="M3786.89 5182.48C3776.95 5182.56 3767.27 5179.34 3759.35 5173.33C3751.43 5167.32 3745.72 5158.86 3743.12 5149.26C3740.52 5139.67 3741.16 5129.48 3744.96 5120.29C3748.75 5111.1 3755.48 5103.43 3764.09 5098.47L5185.94 4277.53C5197.75 4267.82 5206.9 4255.26 5212.51 4241.03C5218.13 4226.8 5220.03 4211.38 5218.03 4196.21V3738.04C5218.03 3667.22 5215.03 3592.51 5209.03 3510C5209.03 3496.19 5165.25 3019.71 5142.75 2769.77C5127.46 2603.24 5008.4 2409.71 4872.84 2331.7L3776.39 1698.59L2376.14 2506.63C2371.02 2509.58 2365.37 2511.5 2359.51 2512.27C2353.65 2513.04 2347.69 2512.65 2341.98 2511.11C2336.27 2509.58 2330.92 2506.94 2326.23 2503.34C2321.55 2499.74 2317.61 2495.25 2314.66 2490.12C2311.71 2485 2309.79 2479.35 2309.02 2473.48C2308.25 2467.62 2308.64 2461.66 2310.17 2455.95C2311.7 2450.24 2314.35 2444.88 2317.95 2440.19C2321.55 2435.5 2326.03 2431.57 2331.15 2428.61L3752.7 1607.37C3759.57 1603.54 3767.32 1601.52 3775.19 1601.52C3783.06 1601.52 3790.81 1603.54 3797.68 1607.37L4916.63 2253.68C5078.57 2347.3 5214.43 2565.74 5232.12 2761.67C5234.82 2791.67 5297.5 3487.49 5298.7 3503.4C5305 3588.01 5308 3664.82 5308 3738.04V4196.21C5308 4269.73 5280.71 4326.43 5231.22 4355.24L3808.78 5176.48C3802.07 5180.21 3794.56 5182.27 3786.89 5182.48Z" fill="#262626"/>
    <path d="M3078.51 2931.2C3068.6 2931.21 3058.96 2927.94 3051.1 2921.91C3043.23 2915.88 3037.58 2907.41 3035.01 2897.84C3032.45 2888.26 3033.12 2878.1 3036.91 2868.94C3040.71 2859.78 3047.43 2852.13 3056.02 2847.18L4477.57 2026.24C4487.91 2020.28 4500.19 2018.66 4511.72 2021.76C4523.25 2024.85 4533.08 2032.4 4539.05 2042.75C4545.01 2053.09 4546.63 2065.38 4543.53 2076.92C4540.44 2088.46 4532.89 2098.29 4522.55 2104.26L3101.01 2925.2C3094.19 2929.19 3086.42 2931.27 3078.51 2931.2Z" fill="#262626"/>
</svg>
